<svg xml:space="preserve" style="enable-background:new 0 0 689 98.8" viewBox="0 0 689 98.8" y="0" x="0" xmlns="http://www.w3.org/2000/svg" id="Livello_1" version="1.1"><path d="M37.9 1.8H0v16h12.1v62H0v16h37.9c12.5 0 22.2-3.2 28.9-9.6C73.6 79.8 77 70.1 77 57.3V40.4c0-12.8-3.4-22.5-10.2-28.9-6.7-6.4-16.4-9.7-28.9-9.7zm21.5 38.1v17.8c0 7.3-1.7 12.9-5.2 16.5-3.4 3.6-8.9 5.4-16.1 5.4h-8.3V18.2h8.3c7.3 0 12.7 1.8 16.2 5.3 3.4 3.5 5.1 9 5.1 16.4zM111.5 56.6h39.4V40.4h-39.4V18h43V1.8H94v94h61.2V79.6h-43.7zM222.5 81.4 187.1 1.8h-18.4l42.8 94h26.9l9.4-94h-18zM318 5.4c-4.6-2.3-10-3.5-15.8-3.5H264V97h17.7V61.8h20.4c5.8 0 11-1.2 15.6-3.5s8.4-5.7 11.1-10.1c2.7-4.4 4.1-9.6 4.1-15.6V31c0-6-1.3-11.2-4-15.5-2.5-4.4-6.2-7.8-10.9-10.1zm-36.3 12.9h19c4.5 0 8.1 1.2 10.7 3.5 2.6 2.3 3.8 5.4 3.8 9.5v1.3c0 4-1.3 7.1-3.8 9.4-2.6 2.3-6.2 3.5-10.7 3.5h-19V18.3zM400.6 64.2c0 5.9-1.6 10.5-4.8 13.6-3.2 3.1-7.9 4.7-14 4.7s-10.8-1.6-14-4.7c-3.2-3.1-4.8-7.7-4.8-13.6V1.8h-18v62c0 7.4 1.5 13.7 4.5 18.9 3 5.2 7.3 9.3 12.8 12 5.4 2.7 12 4.1 19.5 4.1 7.4 0 13.9-1.4 19.4-4.1 5.5-2.8 9.8-6.8 12.8-12 2.9-5.2 4.4-11.5 4.4-18.9v-62h-17.7v62.4zM488.4 84h-1.1L475.5 1.8h-31.8L428.5 97h17.7l13.1-82.3h.5L471.6 97h32.3l15.2-95.2h-17.7zM608.8 1.8h-23.4l-33.6 37.5V1.8h-17.7V97h17.7V58.7L586.3 97h23.9l-44.4-48.2zM684.7 55c-2.8-3.7-6.6-6.7-11.4-8.9-4.6-2.1-10-3.8-16-5.1l-4.9-1.2c-3.8-.8-7-1.8-9.5-2.9-2.3-1-4.1-2.3-5.2-3.8-1.1-1.5-1.7-3.4-1.7-5.8 0-3.5 1.3-6.2 3.9-8.2 2.8-2.1 6.8-3.1 11.9-3.1 3.6 0 6.8.5 9.4 1.6 2.5 1 4.5 2.5 5.9 4.7 1.4 2.1 2.1 5 2.1 8.6v6.5h17.6v-6.5c0-6.8-1.6-12.5-4.6-17.1-3.1-4.5-7.3-8-12.6-10.3-5.2-2.3-11.1-3.5-17.7-3.5s-12.4 1.1-17.3 3.3c-5 2.2-9 5.4-11.8 9.5-2.9 4.1-4.3 9.1-4.3 14.9 0 5.7 1.3 10.4 3.9 14.1 2.5 3.7 6.1 6.6 10.7 8.8 4.4 2.1 9.7 3.9 15.6 5.3l4.8 1.2c3.9.9 7.3 2 10.1 3 2.6 1 4.6 2.3 5.9 3.9 1.3 1.5 1.9 3.4 1.9 5.9 0 3.8-1.4 6.9-4.3 9.3-3 2.5-7.6 3.7-13.6 3.7s-10.8-1.5-14.3-4.4c-3.5-2.9-5.2-7.2-5.2-13.1v-5.1h-17.6v5.1c0 7.1 1.6 13.3 4.8 18.3 3.2 5 7.6 8.9 13.3 11.5 5.5 2.5 11.9 3.8 19.1 3.8 7.1 0 13.4-1.2 18.7-3.6 5.3-2.4 9.5-5.9 12.5-10.2 2.9-4.4 4.4-9.6 4.4-15.4-.2-6.1-1.6-11-4.5-14.8z" fill="black"></path></svg>